<svg xmlns="http://www.w3.org/2000/svg" xmlns:xlink="http://www.w3.org/1999/xlink" width="500" zoomAndPan="magnify" viewBox="0 0 375 374.999991" height="500" preserveAspectRatio="xMidYMid meet" version="1.0"><defs><clipPath id="44cc17bf78"><path d="M 35 88.023438 L 333.691406 88.023438 L 333.691406 229.023438 L 35 229.023438 Z M 35 88.023438 " clip-rule="nonzero"/></clipPath><clipPath id="73e2c0674c"><path d="M 33.691406 245.871094 L 333 245.871094 L 333 287.121094 L 33.691406 287.121094 Z M 33.691406 245.871094 " clip-rule="nonzero"/></clipPath></defs><rect x="-37.5" width="450" fill="#ffffff" y="-37.499999" height="449.999989" fill-opacity="1"/><rect x="-37.5" width="450" fill="#52ef70" y="-37.499999" height="449.999989" fill-opacity="1"/><g clip-path="url(#44cc17bf78)"><path fill="#ffffff" d="M 352.65625 121.703125 L 352.65625 89.980469 L 462.164062 89.980469 L 462.164062 121.703125 Z M 390.90625 227.0625 L 390.90625 89.980469 L 423.914062 89.980469 L 423.914062 227.0625 Z M 468.261719 222.363281 C 460.558594 217.925781 454.441406 211.824219 449.910156 204.050781 C 445.375 196.28125 443.109375 187.765625 443.113281 178.496094 C 443.113281 169.222656 445.34375 160.609375 449.8125 153.035156 C 451.996094 149.300781 454.625 145.910156 457.703125 142.871094 C 460.78125 139.832031 464.203125 137.246094 467.964844 135.117188 C 475.605469 130.742188 484.019531 128.554688 493.210938 128.550781 C 501.75 128.554688 509.644531 130.644531 516.898438 134.816406 C 520.476562 136.863281 523.738281 139.328125 526.683594 142.214844 C 529.628906 145.101562 532.160156 148.316406 534.277344 151.859375 C 538.617188 159.039062 540.785156 167.070312 540.785156 175.949219 C 540.785156 178.820312 540.589844 182.605469 540.199219 187.304688 L 459.039062 187.304688 L 459.039062 167.132812 L 508.167969 167.132812 C 507.90625 164.519531 506.96875 162.269531 505.351562 160.378906 C 503.695312 158.457031 501.722656 156.957031 499.425781 155.878906 C 497.09375 154.765625 494.503906 154.210938 491.660156 154.210938 C 487.519531 154.210938 483.960938 155.121094 480.980469 156.949219 C 478.003906 158.78125 475.640625 161.6875 473.894531 165.664062 C 472.144531 169.644531 471.273438 174.703125 471.273438 180.835938 C 471.273438 185.277344 472.210938 189.160156 474.089844 192.488281 C 474.992188 194.121094 476.101562 195.59375 477.421875 196.910156 C 478.742188 198.226562 480.21875 199.332031 481.855469 200.226562 C 485.152344 202.054688 488.875 202.96875 493.019531 202.964844 C 497.421875 202.96875 500.949219 202.152344 503.601562 200.519531 C 506.257812 198.886719 507.96875 196.699219 508.746094 193.957031 L 539.425781 193.957031 C 537.871094 204.660156 532.921875 213.179688 524.578125 219.507812 C 516.226562 225.84375 505.96875 229.007812 493.800781 229.003906 C 484.480469 229.003906 475.96875 226.785156 468.265625 222.347656 Z M 571.210938 222.464844 C 567.476562 220.328125 564.09375 217.730469 561.058594 214.671875 C 558.027344 211.613281 555.457031 208.207031 553.351562 204.449219 C 549.011719 196.816406 546.84375 188.363281 546.84375 179.09375 C 546.84375 169.820312 549.007812 160.941406 553.351562 153.238281 C 557.6875 145.535156 563.640625 139.496094 571.210938 135.121094 C 578.785156 130.746094 587.234375 128.5625 596.550781 128.5625 C 604.707031 128.5625 612.28125 130.324219 619.265625 133.847656 C 626.253906 137.375 631.949219 142.203125 636.355469 148.339844 C 638.539062 151.359375 640.285156 154.613281 641.605469 158.101562 C 642.921875 161.589844 643.757812 165.191406 644.121094 168.902344 L 612.472656 168.902344 C 611.695312 165.902344 609.816406 163.484375 606.835938 161.652344 C 603.859375 159.828125 600.425781 158.914062 596.542969 158.914062 C 593.046875 158.914062 589.8125 159.761719 586.835938 161.457031 C 585.363281 162.285156 584.042969 163.308594 582.871094 164.527344 C 581.699219 165.742188 580.722656 167.101562 579.945312 168.605469 C 578.328125 171.671875 577.519531 175.164062 577.519531 179.078125 C 577.519531 182.738281 578.328125 186.101562 579.945312 189.160156 C 580.722656 190.664062 581.695312 192.023438 582.867188 193.242188 C 584.039062 194.457031 585.363281 195.480469 586.835938 196.308594 C 589.84375 198.03125 593.078125 198.878906 596.542969 198.851562 C 600.554688 198.851562 604.050781 197.839844 607.03125 195.8125 C 610.003906 193.789062 611.882812 191.210938 612.664062 188.074219 L 644.316406 188.074219 C 643.667969 195.910156 641.175781 202.929688 636.839844 209.128906 C 632.5 215.332031 626.773438 220.195312 619.65625 223.71875 C 612.53125 227.246094 604.828125 229.007812 596.550781 229.007812 C 587.230469 229.007812 578.785156 226.820312 571.210938 222.445312 Z M 682.183594 89.980469 L 682.183594 227.0625 L 651.117188 227.0625 L 651.117188 89.980469 Z M 711.796875 168.3125 C 710.566406 165.570312 708.753906 163.511719 706.359375 162.140625 C 703.960938 160.773438 701.148438 160.085938 697.914062 160.085938 C 693.066406 160.082031 691.796875 160.9375 688.886719 162.628906 C 685.980469 164.300781 683.683594 166.585938 681.996094 169.484375 L 681.996094 141.285156 C 684.453125 137.367188 687.851562 134.265625 692.1875 131.984375 C 696.53125 129.683594 701.160156 128.542969 706.070312 128.5625 C 714.09375 128.5625 721.019531 130.324219 726.851562 133.847656 C 732.675781 137.375 737.140625 142.464844 740.246094 149.121094 C 743.351562 155.78125 744.90625 163.683594 744.90625 172.820312 L 744.90625 227.066406 L 713.644531 227.066406 L 713.644531 178.109375 C 713.644531 174.320312 713.03125 171.058594 711.804688 168.316406 Z M 785.492188 219.914062 C 774.941406 213.847656 766.621094 205.425781 760.539062 194.652344 C 754.449219 183.878906 751.40625 171.835938 751.40625 158.523438 C 751.40625 145.203125 754.449219 133.355469 760.539062 122.585938 C 766.617188 111.8125 774.933594 103.367188 785.492188 97.230469 C 796.039062 91.09375 807.851562 88.023438 820.925781 88.023438 C 831.796875 88.023438 842.023438 90.242188 851.605469 94.679688 C 861.183594 99.117188 869.109375 105.285156 875.390625 113.183594 C 881.667969 121.085938 885.324219 129.800781 886.363281 139.328125 L 849.859375 139.328125 C 848.820312 135.671875 846.910156 132.375 844.132812 129.4375 C 841.347656 126.5 837.917969 124.246094 833.839844 122.679688 C 829.679688 121.09375 825.375 120.308594 820.925781 120.328125 C 814.195312 120.328125 808.109375 121.996094 802.671875 125.324219 C 797.234375 128.65625 792.964844 133.226562 789.859375 139.035156 C 786.753906 144.847656 785.203125 151.34375 785.203125 158.523438 C 785.203125 165.703125 786.753906 172.226562 789.859375 178.101562 C 792.964844 183.976562 797.238281 188.546875 802.671875 191.8125 C 808.109375 195.078125 814.191406 196.707031 820.925781 196.707031 C 825.585938 196.707031 829.921875 195.824219 833.933594 194.0625 C 837.890625 192.355469 841.320312 189.90625 844.226562 186.71875 C 847.074219 183.621094 849.015625 180.027344 850.054688 175.945312 L 886.753906 175.945312 C 885.199219 186.261719 881.347656 195.433594 875.199219 203.460938 C 869.046875 211.488281 861.25 217.757812 851.804688 222.261719 C 842.351562 226.761719 832.0625 229.015625 820.933594 229.015625 C 807.855469 229.015625 796.042969 225.980469 785.496094 219.910156 Z M 955.679688 160.675781 L 925.777344 160.675781 L 925.777344 227.070312 L 894.710938 227.070312 L 894.710938 130.519531 L 955.679688 130.519531 Z M 1049.910156 206.402344 C 1045.957031 213.519531 1040.523438 219.066406 1033.597656 223.050781 C 1026.675781 227.03125 1018.8125 229.023438 1010.007812 229.023438 C 1001.207031 229.023438 993.113281 227.03125 986.125 223.050781 C 979.132812 219.066406 973.664062 213.519531 969.714844 206.402344 C 965.765625 199.292969 963.792969 191.230469 963.789062 182.21875 L 963.789062 130.519531 L 994.855469 130.519531 L 994.855469 182.21875 C 994.855469 187.3125 996.214844 191.359375 998.9375 194.363281 C 1001.65625 197.367188 1005.34375 198.867188 1010 198.863281 C 1014.660156 198.863281 1018.15625 197.367188 1020.871094 194.363281 C 1023.589844 191.363281 1024.953125 187.3125 1024.953125 182.21875 L 1024.953125 130.519531 L 1055.828125 130.519531 L 1055.828125 182.21875 C 1055.828125 191.230469 1053.855469 199.292969 1049.910156 206.402344 M 1096.359375 227.0625 L 1065.292969 227.0625 L 1065.292969 130.519531 L 1096.359375 130.519531 Z M 1126.164062 168.3125 C 1124.933594 165.570312 1123.121094 163.511719 1120.726562 162.140625 C 1118.332031 160.773438 1115.515625 160.089844 1112.28125 160.089844 C 1109.003906 160.082031 1105.964844 160.925781 1103.160156 162.628906 C 1100.277344 164.347656 1097.945312 166.632812 1096.171875 169.484375 L 1096.171875 141.285156 C 1098.757812 137.367188 1102.21875 134.265625 1106.554688 131.984375 C 1110.898438 129.683594 1115.527344 128.542969 1120.4375 128.5625 C 1128.460938 128.5625 1135.390625 130.324219 1141.21875 133.847656 C 1147.039062 137.375 1151.507812 142.46875 1154.617188 149.125 C 1157.722656 155.785156 1159.277344 163.683594 1159.277344 172.820312 L 1159.277344 227.066406 L 1128.015625 227.066406 L 1128.015625 178.109375 C 1128.015625 174.324219 1127.402344 171.0625 1126.171875 168.320312 L 1126.164062 168.316406 Z M 1190.636719 222.464844 C 1186.898438 220.328125 1183.515625 217.730469 1180.484375 214.671875 C 1177.453125 211.613281 1174.882812 208.207031 1172.773438 204.449219 C 1168.433594 196.816406 1166.265625 188.363281 1166.265625 179.09375 C 1166.265625 169.820312 1168.425781 160.941406 1172.773438 153.238281 C 1177.109375 145.535156 1183.0625 139.496094 1190.636719 135.121094 C 1198.210938 130.746094 1206.65625 128.5625 1215.972656 128.5625 C 1224.128906 128.5625 1231.699219 130.324219 1238.6875 133.847656 C 1245.675781 137.375 1251.371094 142.203125 1255.777344 148.339844 C 1260.179688 154.472656 1262.769531 161.328125 1263.542969 168.902344 L 1231.890625 168.902344 C 1231.117188 165.902344 1229.242188 163.484375 1226.257812 161.652344 C 1223.28125 159.828125 1219.851562 158.914062 1215.964844 158.914062 C 1212.503906 158.890625 1209.269531 159.738281 1206.257812 161.457031 C 1204.789062 162.289062 1203.464844 163.3125 1202.292969 164.527344 C 1201.121094 165.746094 1200.144531 167.101562 1199.367188 168.605469 C 1197.746094 171.671875 1196.9375 175.164062 1196.941406 179.078125 C 1196.9375 182.738281 1197.746094 186.101562 1199.367188 189.160156 C 1200.140625 190.664062 1201.117188 192.023438 1202.289062 193.242188 C 1203.464844 194.457031 1204.785156 195.480469 1206.257812 196.308594 C 1209.234375 198.003906 1212.46875 198.851562 1215.964844 198.851562 C 1219.976562 198.851562 1223.472656 197.839844 1226.453125 195.8125 C 1229.429688 193.789062 1231.304688 191.210938 1232.085938 188.074219 L 1263.738281 188.074219 C 1263.089844 195.910156 1260.597656 202.929688 1256.261719 209.128906 C 1251.925781 215.332031 1246.195312 220.195312 1239.078125 223.71875 C 1231.957031 227.246094 1224.253906 229.007812 1215.972656 229.007812 C 1206.652344 229.007812 1198.207031 226.820312 1190.636719 222.445312 Z M 1301.703125 89.980469 L 1301.703125 227.0625 L 1270.640625 227.0625 L 1270.640625 89.980469 Z M 1331.320312 168.3125 C 1330.089844 165.570312 1328.277344 163.511719 1325.878906 162.140625 C 1323.484375 160.773438 1320.667969 160.085938 1317.4375 160.085938 C 1314.203125 160.085938 1311.316406 160.9375 1308.40625 162.628906 C 1305.503906 164.300781 1303.203125 166.585938 1301.515625 169.484375 L 1301.515625 141.285156 C 1303.972656 137.367188 1307.371094 134.265625 1311.707031 131.984375 C 1316.050781 129.683594 1320.675781 128.542969 1325.589844 128.5625 C 1333.613281 128.5625 1340.539062 130.324219 1346.371094 133.847656 C 1352.199219 137.375 1356.664062 142.464844 1359.769531 149.121094 C 1362.875 155.78125 1364.425781 163.683594 1364.425781 172.820312 L 1364.425781 227.066406 L 1333.167969 227.066406 L 1333.167969 178.109375 C 1333.167969 174.320312 1332.550781 171.058594 1331.324219 168.316406 Z M 171.515625 89.980469 L 171.515625 135.632812 L 126.25 135.632812 L 126.25 227.066406 L 80.976562 227.066406 L 80.976562 135.632812 L 35.710938 135.632812 L 35.710938 89.980469 Z M 307.320312 181.410156 L 307.320312 227.070312 L 171.511719 227.070312 L 171.511719 135.660156 L 216.78125 135.660156 L 216.78125 181.410156 Z M 307.320312 89.980469 L 216.785156 89.980469 L 216.785156 135.632812 L 307.320312 135.632812 Z M 307.320312 89.980469 " fill-opacity="1" fill-rule="nonzero"/></g><g clip-path="url(#73e2c0674c)"><path fill="#ffffff" d="M 37.511719 255.726562 L 37.511719 246.445312 L 69.492188 246.445312 L 69.492188 255.726562 Z M 48.683594 286.550781 L 48.683594 246.445312 L 58.320312 246.445312 L 58.320312 286.550781 Z M 71.269531 285.175781 C 69.023438 283.878906 67.234375 282.089844 65.910156 279.816406 C 64.589844 277.542969 63.925781 275.054688 63.925781 272.339844 C 63.925781 269.628906 64.578125 267.109375 65.882812 264.894531 C 67.179688 262.667969 68.949219 260.917969 71.183594 259.652344 C 73.414062 258.371094 75.871094 257.730469 78.554688 257.730469 C 81.050781 257.730469 83.355469 258.34375 85.472656 259.5625 C 87.597656 260.78125 89.289062 262.441406 90.546875 264.546875 C 91.816406 266.648438 92.449219 269 92.449219 271.597656 C 92.449219 272.4375 92.390625 273.542969 92.277344 274.917969 L 68.578125 274.917969 L 68.578125 269.015625 L 82.925781 269.015625 C 82.847656 268.253906 82.574219 267.59375 82.101562 267.042969 C 81.617188 266.476562 81.042969 266.039062 80.371094 265.722656 C 79.691406 265.398438 78.933594 265.238281 78.105469 265.234375 C 76.894531 265.234375 75.855469 265.503906 74.984375 266.039062 C 74.117188 266.574219 73.425781 267.421875 72.917969 268.585938 C 72.40625 269.75 72.148438 271.230469 72.148438 273.027344 C 72.148438 274.324219 72.425781 275.460938 72.972656 276.433594 C 73.511719 277.410156 74.265625 278.164062 75.242188 278.699219 C 76.203125 279.234375 77.289062 279.5 78.5 279.5 C 79.785156 279.5 80.816406 279.261719 81.589844 278.785156 C 82.367188 278.308594 82.867188 277.667969 83.09375 276.863281 L 92.054688 276.863281 C 91.597656 279.996094 90.152344 282.488281 87.714844 284.339844 C 85.277344 286.191406 82.28125 287.121094 78.730469 287.117188 C 76.007812 287.117188 73.523438 286.46875 71.273438 285.171875 Z M 101.335938 285.203125 C 99.113281 283.929688 97.371094 282.175781 96.117188 279.933594 C 94.851562 277.699219 94.21875 275.226562 94.21875 272.515625 C 94.21875 269.804688 94.851562 267.207031 96.117188 264.953125 C 97.386719 262.699219 99.125 260.933594 101.335938 259.652344 C 103.546875 258.371094 106.011719 257.734375 108.734375 257.734375 C 111.117188 257.734375 113.328125 258.25 115.367188 259.28125 C 117.40625 260.3125 119.070312 261.722656 120.359375 263.519531 C 121.65625 265.320312 122.410156 267.324219 122.625 269.535156 L 113.382812 269.535156 C 113.15625 268.65625 112.609375 267.949219 111.738281 267.414062 C 110.867188 266.878906 109.867188 266.613281 108.730469 266.613281 C 107.710938 266.613281 106.765625 266.859375 105.898438 267.355469 C 105.019531 267.851562 104.347656 268.550781 103.886719 269.449219 C 103.410156 270.34375 103.175781 271.367188 103.175781 272.511719 C 103.175781 273.582031 103.410156 274.566406 103.886719 275.460938 C 104.347656 276.359375 105.019531 277.058594 105.898438 277.550781 C 106.773438 278.054688 107.71875 278.304688 108.730469 278.296875 C 109.902344 278.296875 110.925781 278 111.792969 277.40625 C 112.664062 276.816406 113.210938 276.0625 113.4375 275.144531 L 122.683594 275.144531 C 122.492188 277.4375 121.765625 279.488281 120.5 281.304688 C 119.230469 283.117188 117.558594 284.539062 115.480469 285.570312 C 113.402344 286.601562 111.152344 287.117188 108.734375 287.117188 C 106.011719 287.117188 103.546875 286.480469 101.335938 285.199219 Z M 133.742188 246.445312 L 133.742188 286.550781 L 124.667969 286.550781 L 124.667969 246.445312 Z M 142.386719 269.363281 C 142.027344 268.558594 141.5 267.957031 140.800781 267.554688 C 140.097656 267.15625 139.277344 266.957031 138.332031 266.957031 C 136.917969 266.953125 136.546875 267.203125 135.695312 267.699219 C 134.847656 268.1875 134.179688 268.855469 133.683594 269.707031 L 133.683594 261.457031 C 134.402344 260.308594 135.394531 259.402344 136.660156 258.734375 C 137.929688 258.0625 139.28125 257.726562 140.714844 257.734375 C 143.058594 257.734375 145.082031 258.25 146.785156 259.277344 C 148.484375 260.3125 149.789062 261.800781 150.695312 263.75 C 151.601562 265.695312 152.054688 268.007812 152.054688 270.679688 L 152.054688 286.550781 L 142.925781 286.550781 L 142.925781 272.226562 C 142.925781 271.121094 142.75 270.164062 142.390625 269.363281 Z M 163.90625 284.457031 C 160.828125 282.683594 158.398438 280.21875 156.621094 277.066406 C 154.84375 273.917969 153.953125 270.394531 153.953125 266.496094 C 153.953125 262.601562 154.84375 259.136719 156.621094 255.984375 C 158.394531 252.832031 160.824219 250.363281 163.90625 248.566406 C 166.988281 246.769531 170.4375 245.875 174.253906 245.871094 C 177.429688 245.871094 180.417969 246.523438 183.214844 247.820312 C 186.011719 249.121094 188.324219 250.921875 190.160156 253.234375 C 191.992188 255.546875 193.0625 258.09375 193.363281 260.882812 L 182.703125 260.882812 C 182.402344 259.8125 181.84375 258.847656 181.03125 257.988281 C 180.21875 257.128906 179.21875 256.472656 178.027344 256.011719 C 176.8125 255.546875 175.554688 255.320312 174.253906 255.324219 C 172.289062 255.324219 170.511719 255.8125 168.925781 256.785156 C 167.335938 257.761719 166.089844 259.097656 165.183594 260.796875 C 164.277344 262.496094 163.824219 264.398438 163.824219 266.496094 C 163.824219 268.597656 164.277344 270.507812 165.183594 272.226562 C 166.089844 273.945312 167.335938 275.28125 168.925781 276.238281 C 170.511719 277.191406 172.289062 277.667969 174.253906 277.667969 C 175.617188 277.667969 176.882812 277.410156 178.054688 276.894531 C 179.210938 276.394531 180.210938 275.679688 181.058594 274.746094 C 181.890625 273.839844 182.457031 272.789062 182.761719 271.59375 L 193.476562 271.59375 C 193.023438 274.613281 191.898438 277.296875 190.105469 279.644531 C 188.308594 281.992188 186.03125 283.828125 183.273438 285.144531 C 180.511719 286.460938 177.507812 287.121094 174.257812 287.121094 C 170.4375 287.121094 166.988281 286.234375 163.910156 284.457031 Z M 213.605469 267.128906 L 204.875 267.128906 L 204.875 286.550781 L 195.800781 286.550781 L 195.800781 258.304688 L 213.605469 258.304688 Z M 241.121094 280.503906 C 239.96875 282.585938 238.378906 284.210938 236.359375 285.375 C 234.335938 286.539062 232.039062 287.121094 229.46875 287.121094 C 226.898438 287.121094 224.535156 286.539062 222.496094 285.375 C 220.453125 284.210938 218.855469 282.585938 217.703125 280.503906 C 216.550781 278.425781 215.972656 276.066406 215.972656 273.429688 L 215.972656 258.304688 L 225.046875 258.304688 L 225.046875 273.429688 C 225.046875 274.921875 225.441406 276.105469 226.238281 276.984375 C 227.03125 277.863281 228.109375 278.300781 229.46875 278.300781 C 230.828125 278.300781 231.851562 277.863281 232.644531 276.984375 C 233.4375 276.105469 233.835938 274.921875 233.835938 273.429688 L 233.835938 258.304688 L 242.851562 258.304688 L 242.851562 273.429688 C 242.851562 276.066406 242.273438 278.425781 241.121094 280.503906 M 254.6875 286.550781 L 245.613281 286.550781 L 245.613281 258.304688 L 254.6875 258.304688 Z M 263.390625 269.363281 C 263.03125 268.558594 262.5 267.957031 261.800781 267.554688 C 261.101562 267.15625 260.28125 266.957031 259.335938 266.957031 C 258.378906 266.953125 257.492188 267.203125 256.671875 267.699219 C 255.828125 268.203125 255.148438 268.871094 254.632812 269.707031 L 254.632812 261.457031 C 255.386719 260.308594 256.398438 259.402344 257.664062 258.734375 C 258.933594 258.0625 260.285156 257.726562 261.71875 257.734375 C 264.0625 257.734375 266.082031 258.25 267.785156 259.28125 C 269.484375 260.3125 270.789062 261.800781 271.699219 263.75 C 272.605469 265.695312 273.058594 268.007812 273.058594 270.679688 L 273.058594 286.550781 L 263.929688 286.550781 L 263.929688 272.230469 C 263.929688 271.121094 263.75 270.167969 263.390625 269.363281 Z M 282.214844 285.203125 C 279.992188 283.929688 278.253906 282.175781 277 279.933594 C 275.734375 277.699219 275.101562 275.226562 275.101562 272.515625 C 275.101562 269.804688 275.730469 267.207031 277 264.953125 C 278.265625 262.699219 280.003906 260.933594 282.214844 259.652344 C 284.429688 258.371094 286.894531 257.734375 289.617188 257.734375 C 291.996094 257.734375 294.207031 258.25 296.25 259.28125 C 298.289062 260.3125 299.953125 261.722656 301.238281 263.519531 C 302.523438 265.3125 303.28125 267.320312 303.507812 269.535156 L 294.265625 269.535156 C 294.039062 268.65625 293.488281 267.949219 292.617188 267.414062 C 291.75 266.878906 290.746094 266.613281 289.613281 266.613281 C 288.601562 266.605469 287.65625 266.855469 286.777344 267.355469 C 285.902344 267.851562 285.230469 268.550781 284.765625 269.449219 C 284.292969 270.34375 284.058594 271.367188 284.058594 272.511719 C 284.058594 273.582031 284.292969 274.566406 284.765625 275.460938 C 285.230469 276.359375 285.898438 277.058594 286.777344 277.550781 C 287.648438 278.046875 288.59375 278.296875 289.613281 278.296875 C 290.785156 278.296875 291.804688 278 292.675781 277.40625 C 293.542969 276.816406 294.09375 276.0625 294.320312 275.144531 L 303.5625 275.144531 C 303.375 277.4375 302.644531 279.488281 301.378906 281.304688 C 300.113281 283.117188 298.441406 284.539062 296.363281 285.570312 C 294.28125 286.601562 292.035156 287.117188 289.617188 287.117188 C 286.894531 287.117188 284.425781 286.480469 282.214844 285.199219 Z M 314.652344 246.445312 L 314.652344 286.550781 L 305.578125 286.550781 L 305.578125 246.445312 Z M 323.296875 269.363281 C 322.9375 268.558594 322.410156 267.957031 321.710938 267.554688 C 321.011719 267.15625 320.1875 266.957031 319.246094 266.957031 C 318.300781 266.957031 317.457031 267.203125 316.609375 267.699219 C 315.757812 268.1875 315.089844 268.855469 314.59375 269.707031 L 314.59375 261.457031 C 315.3125 260.308594 316.304688 259.402344 317.570312 258.734375 C 318.839844 258.0625 320.191406 257.726562 321.625 257.734375 C 323.96875 257.734375 325.992188 258.25 327.695312 259.277344 C 329.394531 260.3125 330.699219 261.800781 331.605469 263.75 C 332.511719 265.695312 332.96875 268.007812 332.96875 270.679688 L 332.96875 286.550781 L 323.839844 286.550781 L 323.839844 272.226562 C 323.839844 271.121094 323.660156 270.164062 323.300781 269.363281 Z M -15.382812 246.445312 L -15.382812 259.800781 L -28.601562 259.800781 L -28.601562 286.550781 L -41.824219 286.550781 L -41.824219 259.800781 L -55.042969 259.800781 L -55.042969 246.445312 Z M 24.273438 273.195312 L 24.273438 286.550781 L -15.386719 286.550781 L -15.386719 259.808594 L -2.164062 259.808594 L -2.164062 273.195312 Z M 24.273438 246.445312 L -2.164062 246.445312 L -2.164062 259.800781 L 24.273438 259.800781 Z M 24.273438 246.445312 " fill-opacity="1" fill-rule="nonzero"/></g></svg>